<svg width="120" height="24" viewBox="0 0 120 24" fill="none" xmlns="http://www.w3.org/2000/svg">
<path d="M42.1304 6.74382H39.6631C39.2062 6.74382 38.9321 7.01159 38.9321 7.45787V8.52894C37.8355 7.16035 36.2211 6.35704 33.9975 6.35704C29.9159 6.35704 26.5653 9.77853 26.5653 14.1818C26.5653 18.6149 29.9159 22.0364 33.9975 22.0364C36.2211 22.0364 37.8355 21.2331 38.9321 19.8645V20.9356C38.9321 21.3818 39.2062 21.6199 39.6631 21.6199H42.1304C42.6177 21.6199 42.8614 21.3818 42.8614 20.9356V7.45787C42.8614 7.01159 42.6177 6.74382 42.1304 6.74382ZM34.7286 18.3769C32.2918 18.3769 30.4946 16.681 30.4946 14.1818C30.4946 11.6827 32.2918 9.98679 34.7286 9.98679C37.1349 9.98679 38.9321 11.6827 38.9321 14.1818C38.9321 16.681 37.1349 18.3769 34.7286 18.3769Z" fill="#05114A"/>
<path d="M58.9131 6.74382H56.2326C55.8367 6.74382 55.5625 6.95208 55.4407 7.33886L52.2728 16.919L49.105 7.33886C48.9832 6.95208 48.6786 6.74382 48.2826 6.74382H45.6326C45.1147 6.74382 44.8406 7.07109 45.0234 7.57688L50.0493 21.0546C50.1711 21.4413 50.4452 21.6199 50.8412 21.6199H51.5723H53.674C54.07 21.6199 54.3441 21.4413 54.4964 21.0546L59.4919 7.57688C59.6746 7.07109 59.431 6.74382 58.9131 6.74382Z" fill="#05114A"/>
<path d="M76.0707 6.74382H73.6034C73.1465 6.74382 72.8724 7.01159 72.8724 7.45787V8.52894C71.7758 7.16035 70.1614 6.35704 67.9379 6.35704C63.8562 6.35704 60.5056 9.77853 60.5056 14.1818C60.5056 18.6149 63.8562 22.0364 67.9379 22.0364C70.1614 22.0364 71.7758 21.2331 72.8724 19.8645V20.9356C72.8724 21.3818 73.1465 21.6199 73.6034 21.6199H76.0707C76.5581 21.6199 76.8017 21.3818 76.8017 20.9356V7.45787C76.8017 7.01159 76.5581 6.74382 76.0707 6.74382ZM68.6689 18.3769C66.2321 18.3769 64.435 16.681 64.435 14.1818C64.435 11.6827 66.2321 9.98679 68.6689 9.98679C71.0752 9.98679 72.8724 11.6827 72.8724 14.1818C72.8724 16.681 71.0752 18.3769 68.6689 18.3769Z" fill="#05114A"/>
<path d="M81.0959 21.6199H83.5936C84.0505 21.6199 84.2942 21.3818 84.2942 20.9356V0.912413C84.2942 0.466133 84.0505 0.198364 83.5936 0.198364H81.0959C80.639 0.198364 80.3648 0.466133 80.3648 0.912413V20.9356C80.3648 21.3818 80.639 21.6199 81.0959 21.6199Z" fill="#05114A"/>
<path d="M88.6217 21.6199H91.1194C91.5763 21.6199 91.82 21.3818 91.82 20.9356V7.45787C91.82 7.01159 91.5763 6.74382 91.1194 6.74382H88.6217C88.1648 6.74382 87.8906 7.01159 87.8906 7.45787V20.9356C87.8906 21.3818 88.1648 21.6199 88.6217 21.6199Z" fill="#05114A"/>
<path d="M110.19 6.74382H107.722C107.265 6.74382 106.991 7.01159 106.991 7.45787V8.52894C105.895 7.16035 104.28 6.35704 102.057 6.35704C97.975 6.35704 94.6244 9.77853 94.6244 14.1818C94.6244 18.6149 97.975 22.0364 102.057 22.0364C104.28 22.0364 105.895 21.2331 106.991 19.8645V20.9356C106.991 21.3818 107.265 21.6199 107.722 21.6199H110.19C110.677 21.6199 110.921 21.3818 110.921 20.9356V7.45787C110.921 7.01159 110.677 6.74382 110.19 6.74382ZM102.788 18.3769C100.351 18.3769 98.5538 16.681 98.5538 14.1818C98.5538 11.6827 100.351 9.98679 102.788 9.98679C105.194 9.98679 106.991 11.6827 106.991 14.1818C106.991 16.681 105.194 18.3769 102.788 18.3769Z" fill="#6C40EA"/>
<path d="M114.758 4.3339L115.641 1.38845C115.763 0.971918 116.037 0.793405 116.433 0.793405H119.357C119.906 0.793405 120.149 1.12068 119.906 1.62646L118.535 4.60167C118.352 4.9587 118.108 5.10746 117.682 5.10746H115.367C114.88 5.10746 114.605 4.83969 114.758 4.3339ZM115.215 21.6199H117.712C118.169 21.6199 118.413 21.3818 118.413 20.9356V7.45787C118.413 7.01159 118.169 6.74382 117.712 6.74382H115.215C114.758 6.74382 114.484 7.01159 114.484 7.45787V20.9356C114.484 21.3818 114.758 21.6199 115.215 21.6199Z" fill="#6C40EA"/>
<rect x="87.9321" y="2.77686" width="3.85827" height="2.38017" rx="0.609201" fill="#05114A"/>
<rect y="4.76038" width="19.4944" height="19.0413" rx="4.06134" fill="url(#paint0_linear_595_3670)"/>
<g clip-path="url(#clip0_595_3670)">
<path d="M14.1262 11.405L8.15701 17.2354L5.44376 14.5853" stroke="#F2F2F2" stroke-width="2.03067" stroke-linecap="round" stroke-linejoin="round"/>
<path d="M4.67053 15.1736L6.19354 13.8844L8.15904 15.8341L7.62398 16.3905C7.13475 16.8993 6.30716 16.8973 5.82181 16.3862L4.67053 15.1736Z" fill="url(#paint1_linear_595_3670)"/>
</g>
<defs>
<linearGradient id="paint0_linear_595_3670" x1="18.276" y1="23.2067" x2="1.45027" y2="4.66325" gradientUnits="userSpaceOnUse">
<stop stop-color="#A566FF"/>
<stop offset="1" stop-color="#8733FF"/>
</linearGradient>
<linearGradient id="paint1_linear_595_3670" x1="7.63242" y1="16.7283" x2="4.99477" y2="15.0264" gradientUnits="userSpaceOnUse">
<stop stop-color="#2E0071" stop-opacity="0.47"/>
<stop offset="1" stop-color="#D9D9D9" stop-opacity="0.11"/>
</linearGradient>
<clipPath id="clip0_595_3670">
<rect width="11.7779" height="11.5041" fill="white" transform="translate(3.85828 8.52899)"/>
</clipPath>
</defs>
</svg>
